<svg xmlns="http://www.w3.org/2000/svg" viewBox="0 0 24 24">
	<g fill="none">
		<path d="M12 1c3.97.002 7.2 3.23 7.2 7.2c0 1.09-.217 1.918-.707 3.107c-.491 1.189-1.747 3.697-2.49 5.693H7.997c-.71-2.001-1.992-4.504-2.487-5.693S4.8 9.289 4.8 8.2C4.8 4.23 8.03.998 12 1" clip-rule="evenodd" />
		<path stroke="currentColor" stroke-linecap="square" stroke-width="2" d="M8.5 20h7m-5 3h3M12 1c3.97.002 7.2 3.23 7.2 7.2c0 1.09-.217 1.918-.707 3.107c-.491 1.189-1.747 3.697-2.49 5.693H7.997c-.71-2.001-1.992-4.504-2.487-5.693S4.8 9.289 4.8 8.2C4.8 4.23 8.03.998 12 1Z" />
	</g>
</svg>
