<?xml version="1.0" encoding="UTF-8" standalone="no"?>
<!-- Created with Inkscape (http://www.inkscape.org/) -->

<svg
   width="22.436289mm"
   height="22.436275mm"
   viewBox="0 0 22.436289 22.436275"
   version="1.1"
   id="svg1"
   xml:space="preserve"
   sodipodi:docname="aurora-dashboard-logo.svg"
   inkscape:version="1.4.3 (0d15f75, 2025-12-25)"
   xmlns:inkscape="http://www.inkscape.org/namespaces/inkscape"
   xmlns:sodipodi="http://sodipodi.sourceforge.net/DTD/sodipodi-0.dtd"
   xmlns:xlink="http://www.w3.org/1999/xlink"
   xmlns="http://www.w3.org/2000/svg"
   xmlns:svg="http://www.w3.org/2000/svg"><sodipodi:namedview
     id="namedview1"
     pagecolor="#ffffff"
     bordercolor="#000000"
     borderopacity="0.25"
     inkscape:showpageshadow="2"
     inkscape:pageopacity="0.0"
     inkscape:pagecheckerboard="0"
     inkscape:deskcolor="#d1d1d1"
     inkscape:document-units="mm"
     inkscape:zoom="1.8303378"
     inkscape:cx="55.181071"
     inkscape:cy="24.585626"
     inkscape:window-width="1024"
     inkscape:window-height="1027"
     inkscape:window-x="0"
     inkscape:window-y="25"
     inkscape:window-maximized="0"
     inkscape:current-layer="layer1" /><defs
     id="defs1"><linearGradient
       id="linearGradient159"><stop
         style="stop-color:#0afbc1;stop-opacity:1;"
         offset="0"
         id="stop157" /><stop
         style="stop-color:#00cdfd;stop-opacity:1;"
         offset="0.20055293"
         id="stop158" /><stop
         style="stop-color:#023b7e;stop-opacity:1;"
         offset="1"
         id="stop159" /></linearGradient><filter
       style="color-interpolation-filters:sRGB"
       id="filter216"
       x="-0.20453108"
       y="-0.18091578"
       width="1.4090622"
       height="1.3618316"><feGaussianBlur
         stdDeviation="2.2791793"
         id="feGaussianBlur216" /></filter><filter
       style="color-interpolation-filters:sRGB"
       id="filter217"
       x="-0.21414971"
       y="-0.18942242"
       width="1.4282994"
       height="1.3788448"><feGaussianBlur
         stdDeviation="2.3863462"
         id="feGaussianBlur217" /></filter><radialGradient
       xlink:href="#linearGradient159"
       id="radialGradient67"
       gradientUnits="userSpaceOnUse"
       gradientTransform="matrix(1,0,0,1.1305405,0,-20.260878)"
       cx="57.675457"
       cy="155.20764"
       fx="57.675457"
       fy="155.20764"
       r="13.372025" /><radialGradient
       xlink:href="#linearGradient159"
       id="radialGradient68"
       gradientUnits="userSpaceOnUse"
       gradientTransform="matrix(1,0,0,1.1305405,0,-20.260878)"
       cx="57.675457"
       cy="155.20764"
       fx="57.675457"
       fy="155.20764"
       r="13.372025" /><radialGradient
       xlink:href="#linearGradient159"
       id="radialGradient69"
       gradientUnits="userSpaceOnUse"
       gradientTransform="matrix(-1,0,0,-1.1305403,202.19623,464.48727)"
       cx="47.454472"
       cy="218.73126"
       fx="47.454472"
       fy="218.73126"
       r="13.372027" /><clipPath
       clipPathUnits="userSpaceOnUse"
       id="clipPath77"><rect
         style="fill:#091734;fill-opacity:1;stroke:none;stroke-width:9.80205;stroke-linecap:square;stroke-linejoin:bevel;stroke-miterlimit:1"
         id="rect78"
         width="33.53474"
         height="33.53474"
         x="-171.48122"
         y="200.43539"
         ry="5.9786668"
         transform="scale(-1,1)" /></clipPath><clipPath
       clipPathUnits="userSpaceOnUse"
       id="clipPath78"><rect
         style="fill:#091734;fill-opacity:1;stroke:none;stroke-width:13.2094;stroke-linecap:square;stroke-linejoin:bevel;stroke-miterlimit:1"
         id="rect79"
         width="45.192127"
         height="45.192127"
         x="-177.38295"
         y="46.391727"
         ry="8.0569792"
         transform="matrix(-0.70710678,-0.70710678,-0.70710678,0.70710678,0,0)" /></clipPath><clipPath
       clipPathUnits="userSpaceOnUse"
       id="clipPath3"><rect
         style="fill:#091734;fill-opacity:1;stroke:none;stroke-width:6.55802;stroke-linecap:square;stroke-linejoin:bevel;stroke-miterlimit:1"
         id="rect3"
         width="22.436268"
         height="22.436268"
         x="355.22226"
         y="195.0321"
         ry="4" /></clipPath><clipPath
       clipPathUnits="userSpaceOnUse"
       id="clipPath4"><rect
         style="fill:#091734;fill-opacity:1;stroke:none;stroke-width:6.55802;stroke-linecap:square;stroke-linejoin:bevel;stroke-miterlimit:1"
         id="rect4"
         width="22.436268"
         height="22.436268"
         x="355.22226"
         y="195.0321"
         ry="4" /></clipPath></defs><g
     id="layer1"
     transform="translate(-355.22223,-195.03211)"><path
       id="rect51"
       style="fill:#ffffff;fill-opacity:1;stroke:none;stroke-width:6.55801;stroke-linecap:square;stroke-linejoin:bevel;stroke-miterlimit:1"
       d="M 359.2225 195.03211 C 357.0065 195.03211 355.22223 196.81587 355.22223 199.03187 L 355.22223 200.69171 C 356.05618 201.28076 356.82947 201.86938 357.55645 202.45905 L 360.48444 195.03211 L 359.2225 195.03211 z M 361.149 195.03211 C 361.14093 195.05156 361.13308 195.07136 361.12523 195.09154 L 358.07012 202.90036 C 362.93298 207.07353 364.82268 211.33212 364.66972 214.60353 C 364.61937 215.68028 364.34565 216.64906 363.88578 217.46847 L 372.39483 217.46847 L 363.19539 195.13288 L 363.19539 195.13081 C 363.18223 195.09698 363.16856 195.06408 363.15456 195.03211 L 361.149 195.03211 z M 366.07066 195.03211 L 375.40911 217.06849 C 376.743 216.4214 377.65859 215.05558 377.65859 213.46819 L 377.65859 199.03187 C 377.65859 196.81587 375.87431 195.03211 373.65831 195.03211 L 366.07066 195.03211 z M 355.22223 201.44464 L 355.22223 208.47883 L 357.34355 203.05281 C 356.71363 202.51787 355.99787 201.98173 355.22223 201.44464 z M 357.85359 203.47087 L 355.89454 208.48038 C 355.57261 209.30742 355.35307 210.09246 355.22223 210.82856 L 355.22223 213.46819 C 355.22223 213.7988 355.26203 214.11991 355.33695 214.42679 C 355.4297 214.74158 355.54485 215.03409 355.67957 215.30271 C 355.77003 215.48308 355.86933 215.65302 355.97619 215.81172 C 356.51765 216.5621 357.31305 217.11524 358.2391 217.34754 C 358.63054 217.41515 359.0419 217.41111 359.4628 217.32997 C 361.14946 216.99162 362.6525 215.19328 362.76751 212.62483 C 362.88103 210.0894 361.61754 206.80335 357.85359 203.47087 z " /></g></svg>
